REM DIRINDEX 1\2,1\4,1\5,1\6,1\7,1\3\8,1\3\9,1\3\10
REM DIRNAME folder01,folder02,folder03,folder04,folder05,folder06,folder07,folder08,folder09,folder10
TITLE ""
FILE "DB4500_5th_5C_05.mp3" MP3
  TRACK 01 AUDIO
    TITLE "8:cjc113_3561"
    INDEX 01 00:00:00
  TRACK 02 AUDIO
    TITLE "0:"
    INDEX 01 00:01:13
  TRACK 03 AUDIO
    TITLE "9:cjc113_3562"
    INDEX 01 00:01:22
  TRACK 04 AUDIO
    TITLE "0:"
    INDEX 01 00:02:55
  TRACK 05 AUDIO
    TITLE "10:cjc113_3563"
    INDEX 01 00:02:63
  TRACK 06 AUDIO
    TITLE "0:"
    INDEX 01 00:06:41
  TRACK 07 AUDIO
    TITLE "8:cjc113_3564"
    INDEX 01 00:06:73
  TRACK 08 AUDIO
    TITLE "0:"
    INDEX 01 00:08:17
  TRACK 09 AUDIO
    TITLE "9:cjc113_3565"
    INDEX 01 00:08:24
  TRACK 10 AUDIO
    TITLE "0:"
    INDEX 01 00:09:61
  TRACK 11 AUDIO
    TITLE "10:cjc113_3566"
    INDEX 01 00:09:71
  TRACK 12 AUDIO
    TITLE "0:"
    INDEX 01 00:13:12
  TRACK 13 AUDIO
    TITLE "8:cjc113_3567"
    INDEX 01 00:13:41
  TRACK 14 AUDIO
    TITLE "0:"
    INDEX 01 00:14:56
  TRACK 15 AUDIO
    TITLE "9:cjc113_3568"
    INDEX 01 00:14:64
  TRACK 16 AUDIO
    TITLE "0:"
    INDEX 01 00:15:70
  TRACK 17 AUDIO
    TITLE "10:cjc113_3569"
    INDEX 01 00:16:04
  TRACK 18 AUDIO
    TITLE "0:"
    INDEX 01 00:20:26
  TRACK 19 AUDIO
    TITLE "8:cjc113_3570"
    INDEX 01 00:20:55
  TRACK 20 AUDIO
    TITLE "0:"
    INDEX 01 00:21:74
  TRACK 21 AUDIO
    TITLE "9:cjc113_3571"
    INDEX 01 00:22:07
  TRACK 22 AUDIO
    TITLE "0:"
    INDEX 01 00:23:36
  TRACK 23 AUDIO
    TITLE "10:cjc113_3572"
    INDEX 01 00:23:44
  TRACK 24 AUDIO
    TITLE "0:"
    INDEX 01 00:26:69
  TRACK 25 AUDIO
    TITLE "8:cjc113_3573"
    INDEX 01 00:27:24
  TRACK 26 AUDIO
    TITLE "0:"
    INDEX 01 00:28:39
  TRACK 27 AUDIO
    TITLE "9:cjc113_3574"
    INDEX 01 00:28:49
  TRACK 28 AUDIO
    TITLE "0:"
    INDEX 01 00:29:60
  TRACK 29 AUDIO
    TITLE "10:cjc113_3575"
    INDEX 01 00:29:68
  TRACK 30 AUDIO
    TITLE "0:"
    INDEX 01 00:34:43
  TRACK 31 AUDIO
    TITLE "8:cjc113_3576"
    INDEX 01 00:35:00
  TRACK 32 AUDIO
    TITLE "0:"
    INDEX 01 00:36:27
  TRACK 33 AUDIO
    TITLE "9:cjc113_3577"
    INDEX 01 00:36:35
  TRACK 34 AUDIO
    TITLE "0:"
    INDEX 01 00:37:67
  TRACK 35 AUDIO
    TITLE "10:cjc113_3578"
    INDEX 01 00:38:00
  TRACK 36 AUDIO
    TITLE "0:"
    INDEX 01 00:42:12
  TRACK 37 AUDIO
    TITLE "8:cjc113_3579"
    INDEX 01 00:42:45
  TRACK 38 AUDIO
    TITLE "0:"
    INDEX 01 00:43:54
  TRACK 39 AUDIO
    TITLE "9:cjc113_3580"
    INDEX 01 00:43:62
  TRACK 40 AUDIO
    TITLE "0:"
    INDEX 01 00:45:00
  TRACK 41 AUDIO
    TITLE "10:cjc113_3581"
    INDEX 01 00:45:10
  TRACK 42 AUDIO
    TITLE "0:"
    INDEX 01 00:48:32
  TRACK 43 AUDIO
    TITLE "8:cjc113_3582"
    INDEX 01 00:48:63
  TRACK 44 AUDIO
    TITLE "0:"
    INDEX 01 00:50:09
  TRACK 45 AUDIO
    TITLE "9:cjc113_3583"
    INDEX 01 00:50:15
  TRACK 46 AUDIO
    TITLE "0:"
    INDEX 01 00:51:58
  TRACK 47 AUDIO
    TITLE "10:cjc113_3584"
    INDEX 01 00:51:60
  TRACK 48 AUDIO
    TITLE "0:"
    INDEX 01 00:55:14
  TRACK 49 AUDIO
    TITLE "8:cjc113_3585"
    INDEX 01 00:55:46
  TRACK 50 AUDIO
    TITLE "0:"
    INDEX 01 00:56:63
  TRACK 51 AUDIO
    TITLE "9:cjc113_3586"
    INDEX 01 00:56:67
  TRACK 52 AUDIO
    TITLE "0:"
    INDEX 01 00:58:15
  TRACK 53 AUDIO
    TITLE "10:cjc113_3587"
    INDEX 01 00:58:24
  TRACK 54 AUDIO
    TITLE "0:"
    INDEX 01 01:01:07
  TRACK 55 AUDIO
    TITLE "8:cjc113_3588"
    INDEX 01 01:01:38
  TRACK 56 AUDIO
    TITLE "0:"
    INDEX 01 01:02:57
  TRACK 57 AUDIO
    TITLE "9:cjc113_3589"
    INDEX 01 01:02:65
  TRACK 58 AUDIO
    TITLE "0:"
    INDEX 01 01:04:23
  TRACK 59 AUDIO
    TITLE "10:cjc113_3590"
    INDEX 01 01:04:27
  TRACK 60 AUDIO
    TITLE "0:"
    INDEX 01 01:07:29
  TRACK 61 AUDIO
    TITLE "8:cjc113_3591"
    INDEX 01 01:07:63
  TRACK 62 AUDIO
    TITLE "0:"
    INDEX 01 01:08:68
  TRACK 63 AUDIO
    TITLE "9:cjc113_3592"
    INDEX 01 01:09:01
  TRACK 64 AUDIO
    TITLE "0:"
    INDEX 01 01:10:06
  TRACK 65 AUDIO
    TITLE "10:cjc113_3593"
    INDEX 01 01:10:14
  TRACK 66 AUDIO
    TITLE "0:"
    INDEX 01 01:12:73
  TRACK 67 AUDIO
    TITLE "8:cjc113_3594"
    INDEX 01 01:13:28
  TRACK 68 AUDIO
    TITLE "0:"
    INDEX 01 01:14:27
  TRACK 69 AUDIO
    TITLE "9:cjc113_3595"
    INDEX 01 01:14:35
  TRACK 70 AUDIO
    TITLE "0:"
    INDEX 01 01:15:46
  TRACK 71 AUDIO
    TITLE "10:cjc113_3596"
    INDEX 01 01:15:56
  TRACK 72 AUDIO
    TITLE "0:"
    INDEX 01 01:18:31
